<svg height="511pt" viewBox="0 -18 511.99908 511" width="511pt" xmlns="http://www.w3.org/2000/svg"><path d="m200.492188 450.128906c15.65625 0 28.394531-12.738281 28.394531-28.394531s-12.738281-28.394531-28.394531-28.394531-28.394532 12.738281-28.394532 28.394531 12.738282 28.394531 28.394532 28.394531zm0-41.816406c7.402343 0 13.421874 6.019531 13.421874 13.421875 0 7.398437-6.019531 13.417969-13.421874 13.417969-7.398438 0-13.417969-6.019532-13.417969-13.417969 0-7.402344 6.019531-13.421875 13.417969-13.421875zm0 0"/><path d="m383.367188 450.128906c15.65625 0 28.390624-12.738281 28.390624-28.394531s-12.734374-28.394531-28.390624-28.394531-28.394532 12.738281-28.394532 28.394531 12.738282 28.394531 28.394532 28.394531zm0-41.816406c7.398437 0 13.417968 6.019531 13.417968 13.421875 0 7.398437-6.019531 13.417969-13.417968 13.417969-7.402344 0-13.421876-6.019532-13.421876-13.417969 0-7.402344 6.019532-13.421875 13.421876-13.421875zm0 0"/><path d="m483.640625 244.0625h-8.179687l35.339843-153.566406c6.664063-28.945313-15.324219-56.554688-45.019531-56.554688h-146.265625c-4.136719 0-7.488281 3.351563-7.488281 7.484375 0 4.136719 3.351562 7.488281 7.488281 7.488281h146.265625c20.09375 0 34.929688 18.683594 30.429688 38.226563l-36.113282 156.921875h-25.609375c3.847657-16.710938 31.90625-138.640625 37.058594-161.027344 1.078125-4.6875-2.484375-9.164062-7.296875-9.164062h-338.25l-8.835938-24.957032h174.398438c4.136719 0 7.488281-3.351562 7.488281-7.488281 0-4.132812-3.351562-7.484375-7.488281-7.484375h-179.699219c-6.753906-18.921875-25.789062-33.441406-48.351562-33.441406h-36.058594c-15.140625 0-27.453125 12.3125-27.453125 27.449219 0 15.140625 12.3125 27.453125 27.453125 27.453125h33.84375l42.253906 119.371094c1.378907 3.898437 5.660157 5.941406 9.554688 4.5625 3.898437-1.378907 5.941406-5.660157 4.5625-9.558594-41.324219-116.730469-43.09375-121.765625-43.238281-122.117188-1.863282-4.390625-6.144532-7.230468-10.917969-7.230468h-36.058594c-6.882813 0-12.480469-5.597657-12.480469-12.480469 0-6.878907 5.597656-12.476563 12.480469-12.476563h36.058594c14.746093 0 27.992187 8.730469 33.8125 22.261719 8.929687 25.234375 60.007812 169.539063 67.597656 190.980469 5.511719 15.574218 23.484375 30.320312 45.289063 30.320312h273.429687c6.882813 0 12.480469 5.597656 12.480469 12.480469 0 6.878906-5.597656 12.476563-12.480469 12.476563h-273.429687c-29.65625 0-56.367188-17.613282-68.019532-44.925782l-15.1875-42.902344c-1.378906-3.898437-5.65625-5.9375-9.554687-4.558593-3.898438 1.378906-5.9375 5.65625-4.558594 9.554687 12.15625 31.058594 12.671875 45.085938 27.386719 63.839844l-16.921875 24.410156c-25.429688 36.679688-3.023438 86.984375 40.65625 93.148438-35.351563 32.945312-12.21875 92.730468 36.480469 92.730468 48.269531 0 71.628906-58.929687 37.109374-92.140624h108.660157c-34.496094 33.1875-11.21875 92.140624 37.105469 92.140624 48.269531 0 71.628906-58.929687 37.105468-92.140624h9.90625c15.136719 0 27.453125-12.3125 27.453125-27.449219s-12.316406-27.453125-27.453125-27.453125h-68.566406c-4.136719 0-7.488281 3.355468-7.488281 7.488281s3.351562 7.488281 7.488281 7.488281h68.566406c6.882813 0 12.480469 5.59375 12.480469 12.476563 0 6.878906-5.597656 12.476562-12.480469 12.476562h-257.949218c-36.0625 0-57.324219-40.582031-36.769532-70.234375l15.078125-21.75c6.21875 5.59375 13.195313 10.28125 20.71875 13.917969l-15.285156 22.050781c-9.117187 13.148438.277344 31.0625 16.261719 31.0625h161.425781c4.132813 0 7.484375-3.355468 7.484375-7.488281s-3.351562-7.488281-7.484375-7.488281h-161.429687c-3.921876 0-6.191407-4.324219-3.953126-7.554688l17.398438-25.097656c21.074219 5.972656 10.269531 2.21875 297.765625 3.371094 15.136719 0 27.453125-12.3125 27.453125-27.449219s-12.316406-27.453125-27.453125-27.453125zm-331.378906-95.992188h24.84375v45.5h-8.738281zm39.816406 0h45.5v45.5h-45.5zm241.894531 31.46875v-31.46875h7.242188zm-14.972656 14.03125h-45.5v-45.5h45.5zm-60.472656 0h-45.5v-45.5h45.5zm14.972656-60.472656v-44.253906h45.5v44.253906zm-14.972656 0h-45.5v-44.253906h45.5zm-60.472656 0h-45.503907v-44.253906h45.503907zm-60.476563 0h-45.5v-44.253906h45.5zm14.972656 14.972656h45.503907v45.5h-45.503907zm45.503907 60.476563v35.515625h-45.503907v-35.515625zm14.972656 0h45.5v35.515625h-45.5zm60.472656 0h45.5v35.515625h-45.5zm71.160156-75.449219h-10.6875v-44.253906h20.871094zm-267.554687-44.253906v44.253906h-30.144531l-15.664063-44.253906zm-3.4375 119.703125h3.4375v9.710937zm18.410156 30.296875v-30.296875h45.5v35.515625c-21.882813-1.019531-32.601563 2.902344-45.5-5.21875zm229.871094 182.890625c0 21.273437-17.308594 38.582031-38.582031 38.582031-21.273438 0-38.582032-17.308594-38.582032-38.582031 0-21.277344 17.308594-38.585937 38.582032-38.585937 21.273437 0 38.582031 17.308593 38.582031 38.585937zm-182.875 0c0 21.273437-17.308594 38.582031-38.582031 38.582031-21.273438 0-38.582032-17.308594-38.582032-38.582031 0-21.277344 17.308594-38.585937 38.582032-38.585937 21.273437 0 38.582031 17.308593 38.582031 38.585937zm0 0"/></svg>